<?xml version='1.0' encoding='utf-8'?>
<svg xmlns="http://www.w3.org/2000/svg" version="1.1" width="84.75mm" height="52.83872mm" viewBox="124.7 94.2 84.75 52.83872"><path d="M 163.302961 95.102155 L 163.405826 95.107457 L 163.457159 95.111431 L 163.559596 95.122020 L 163.610659 95.128631 L 163.712429 95.144481 L 163.763076 95.153710 L 163.863897 95.174779 L 163.914005 95.186604 L 164.013599 95.212833 L 164.063032 95.227222 L 164.161152 95.258545 L 164.209779 95.275460 L 164.306148 95.311790 L 164.353834 95.331183 L 164.448224 95.372434 L 164.494853 95.394259 L 164.586970 95.440302 L 164.632416 95.464499 L 164.722055 95.515232 L 164.766192 95.541735 L 164.853097 95.597012 L 164.895815 95.625755 L 164.979751 95.685427 L 165.020926 95.716325 L 165.101701 95.780256 L 165.141234 95.813236 L 165.218586 95.881219 L 165.256370 95.916191 L 165.330138 95.988084 L 165.366065 96.024948 L 165.436029 96.100538 L 165.470015 96.139208 L 165.535994 96.218296 L 165.567946 96.258666 L 165.629764 96.341044 L 165.659594 96.383003 L 165.717093 96.468460 L 165.744726 96.511904 L 165.797740 96.600191 L 165.823099 96.644998 L 165.871511 96.735921 L 165.894532 96.781980 L 165.938181 96.875237 L 165.958804 96.922426 L 165.997604 97.017830 L 166.015763 97.065999 L 166.049607 97.163291 L 166.065265 97.212340 L 166.094043 97.311210 L 166.107157 97.361004 L 166.130815 97.461251 L 166.141346 97.511645 L 166.159810 97.612968 L 166.167734 97.663845 L 166.180958 97.765978 L 166.186252 97.817190 L 166.194201 97.919884 L 166.198856 98.010198 L 167.100000 98.010198 L 167.242861 98.012746 L 167.525674 98.053408 L 167.799821 98.133905 L 168.059723 98.252598 L 168.300087 98.407070 L 168.516021 98.594178 L 168.703128 98.810112 L 168.857601 99.050476 L 168.976294 99.310377 L 169.056791 99.584524 L 169.097454 99.867337 L 169.100000 100.010198 L 169.100000 107.400000 L 169.102548 107.542861 L 169.143210 107.825674 L 169.223707 108.099821 L 169.342400 108.359722 L 169.496873 108.600086 L 169.683980 108.816020 L 169.899914 109.003127 L 170.140278 109.157600 L 170.400179 109.276293 L 170.674326 109.356790 L 170.957139 109.397452 L 171.100000 109.400000 L 193.700000 109.400000 L 193.842861 109.402548 L 194.125674 109.443210 L 194.399821 109.523707 L 194.659722 109.642400 L 194.900086 109.796873 L 195.116020 109.983980 L 195.303127 110.199914 L 195.457600 110.440278 L 195.576293 110.700179 L 195.656790 110.974326 L 195.697452 111.257139 L 195.700000 111.400000 L 195.700000 136.010198 L 195.697573 136.153067 L 195.656908 136.435898 L 195.576406 136.710062 L 195.457706 136.969979 L 195.303225 137.210357 L 195.116106 137.426304 L 194.900159 137.613423 L 194.659781 137.767905 L 194.399864 137.886606 L 194.125699 137.967108 L 193.842869 138.007772 L 193.700000 138.010198 L 185.905921 138.010198 L 185.905842 138.021396 L 185.902688 138.120388 L 185.900668 138.156032 L 185.891068 138.268828 L 185.887835 138.297266 L 185.871871 138.409320 L 185.867035 138.437523 L 185.844752 138.548527 L 185.838328 138.576411 L 185.809807 138.685945 L 185.801814 138.713429 L 185.767137 138.821190 L 185.757602 138.848176 L 185.716890 138.953788 L 185.705843 138.980194 L 185.659217 139.083342 L 185.646698 139.109071 L 185.594304 139.209429 L 185.580349 139.234410 L 185.522372 139.331626 L 185.507018 139.355790 L 185.443637 139.449564 L 185.426950 139.472807 L 185.358343 139.562877 L 185.340364 139.585143 L 185.266804 139.671147 L 185.247578 139.692378 L 185.169267 139.774087 L 185.148888 139.794180 L 185.066048 139.871357 L 185.044568 139.890261 L 184.957522 139.962604 L 184.935002 139.980267 L 184.843982 140.047586 L 184.820499 140.063946 L 184.725838 140.125992 L 184.701468 140.140997 L 184.603424 140.197603 L 184.578245 140.211205 L 184.477178 140.262162 L 184.451272 140.274317 L 184.347459 140.319486 L 184.320910 140.330154 L 184.214727 140.369369 L 184.187610 140.378521 L 184.079369 140.411669 L 184.051775 140.419272 L 183.941850 140.446240 L 183.913872 140.452270 L 183.802574 140.472979 L 183.774299 140.477416 L 183.662034 140.491792 L 183.633545 140.494623 L 183.520633 140.502626 L 183.492038 140.503841 L 183.378854 140.505443 L 183.350244 140.505038 L 183.237135 140.500233 L 183.208592 140.498210 L 183.095953 140.487015 L 183.067564 140.483380 L 182.955735 140.465830 L 182.927594 140.460594 L 182.816946 140.436748 L 182.789151 140.429929 L 182.680014 140.399857 L 182.652647 140.391476 L 182.545405 140.355283 L 182.518551 140.345365 L 182.413517 140.303159 L 182.387270 140.291739 L 182.284800 140.243662 L 182.259233 140.230772 L 182.159653 140.176977 L 182.134871 140.162670 L 182.038461 140.103308 L 182.014536 140.087626 L 181.921656 140.022916 L 181.898647 140.005898 L 181.809578 139.936039 L 181.787565 139.917744 L 181.702596 139.842963 L 181.681655 139.823453 L 181.601045 139.743976 L 181.581240 139.723312 L 181.505266 139.639413 L 181.486658 139.617657 L 181.415549 139.529590 L 181.398205 139.506820 L 181.332190 139.414868 L 181.316162 139.391153 L 181.255456 139.295617 L 181.240799 139.271041 L 181.185587 139.172205 L 181.172344 139.146838 L 181.122822 139.045059 L 181.111031 139.018974 L 181.067343 138.914550 L 181.057051 138.887852 L 181.019335 138.781106 L 181.010568 138.753862 L 180.978962 138.645186 L 180.971748 138.617480 L 180.946337 138.507175 L 180.940703 138.479111 L 180.921573 138.367548 L 180.917537 138.339216 L 180.904748 138.226733 L 180.902321 138.198215 L 180.895918 138.085213 L 180.893794 138.010198 L 149.905921 138.010198 L 149.905842 138.021396 L 149.902688 138.120388 L 149.900668 138.156032 L 149.891068 138.268828 L 149.887835 138.297266 L 149.871871 138.409320 L 149.867035 138.437523 L 149.844752 138.548527 L 149.838328 138.576411 L 149.809807 138.685945 L 149.801814 138.713429 L 149.767137 138.821190 L 149.757602 138.848176 L 149.716890 138.953788 L 149.705843 138.980194 L 149.659217 139.083342 L 149.646698 139.109071 L 149.594304 139.209429 L 149.580349 139.234410 L 149.522372 139.331626 L 149.507018 139.355790 L 149.443637 139.449564 L 149.426950 139.472807 L 149.358343 139.562877 L 149.340364 139.585143 L 149.266804 139.671147 L 149.247578 139.692378 L 149.169267 139.774087 L 149.148888 139.794180 L 149.066048 139.871357 L 149.044568 139.890261 L 148.957522 139.962604 L 148.935002 139.980267 L 148.843982 140.047586 L 148.820499 140.063946 L 148.725838 140.125992 L 148.701468 140.140997 L 148.603424 140.197603 L 148.578245 140.211205 L 148.477178 140.262162 L 148.451272 140.274317 L 148.347459 140.319486 L 148.320910 140.330154 L 148.214727 140.369369 L 148.187610 140.378521 L 148.079369 140.411669 L 148.051775 140.419272 L 147.941850 140.446240 L 147.913872 140.452270 L 147.802574 140.472979 L 147.774299 140.477416 L 147.662034 140.491792 L 147.633545 140.494623 L 147.520633 140.502626 L 147.492038 140.503841 L 147.378854 140.505443 L 147.350244 140.505038 L 147.237135 140.500233 L 147.208592 140.498210 L 147.095953 140.487015 L 147.067564 140.483380 L 146.955735 140.465830 L 146.927594 140.460594 L 146.816946 140.436748 L 146.789151 140.429929 L 146.680014 140.399857 L 146.652647 140.391476 L 146.545405 140.355283 L 146.518551 140.345365 L 146.413517 140.303159 L 146.387270 140.291739 L 146.284800 140.243662 L 146.259233 140.230772 L 146.159653 140.176977 L 146.134871 140.162670 L 146.038461 140.103308 L 146.014536 140.087626 L 145.921656 140.022916 L 145.898647 140.005898 L 145.809578 139.936039 L 145.787565 139.917744 L 145.702596 139.842963 L 145.681655 139.823453 L 145.601045 139.743976 L 145.581240 139.723312 L 145.505266 139.639413 L 145.486658 139.617657 L 145.415549 139.529590 L 145.398205 139.506820 L 145.332190 139.414868 L 145.316162 139.391153 L 145.255456 139.295617 L 145.240799 139.271041 L 145.185587 139.172205 L 145.172344 139.146838 L 145.122822 139.045059 L 145.111031 139.018974 L 145.067343 138.914550 L 145.057051 138.887852 L 145.019335 138.781106 L 145.010568 138.753862 L 144.978962 138.645186 L 144.971748 138.617480 L 144.946337 138.507175 L 144.940703 138.479111 L 144.921573 138.367548 L 144.917537 138.339216 L 144.904748 138.226733 L 144.902321 138.198215 L 144.895918 138.085213 L 144.893794 138.010198 L 132.700000 138.010198 L 132.557131 138.007770 L 132.274301 137.967106 L 132.000137 137.886604 L 131.740220 137.767904 L 131.499842 137.613422 L 131.283896 137.426303 L 131.096777 137.210356 L 130.942295 136.969978 L 130.823596 136.710061 L 130.743094 136.435897 L 130.702429 136.153067 L 130.700000 136.010198 L 130.700000 100.010198 L 130.702548 99.867337 L 130.743211 99.584525 L 130.823708 99.310377 L 130.942401 99.050477 L 131.096873 98.810113 L 131.283981 98.594179 L 131.499914 98.407072 L 131.740278 98.252600 L 132.000179 98.133907 L 132.274327 98.053410 L 132.557139 98.012748 L 132.700000 98.010198 L 160.201144 98.010198 L 160.205799 97.919888 L 160.213749 97.817186 L 160.219043 97.765977 L 160.232266 97.663845 L 160.240189 97.612970 L 160.258654 97.511643 L 160.269187 97.461240 L 160.292840 97.361015 L 160.305955 97.311214 L 160.334737 97.212336 L 160.350394 97.163290 L 160.384236 97.066001 L 160.402395 97.017833 L 160.441197 96.922424 L 160.461818 96.875240 L 160.505470 96.781976 L 160.528489 96.735921 L 160.576901 96.644998 L 160.602259 96.600193 L 160.655275 96.511903 L 160.682906 96.468462 L 160.740408 96.383001 L 160.770234 96.341047 L 160.832056 96.258664 L 160.864009 96.218292 L 160.929982 96.139211 L 160.963971 96.100538 L 161.033934 96.024949 L 161.069862 95.988084 L 161.143630 95.916191 L 161.181414 95.881219 L 161.258766 95.813236 L 161.298303 95.780253 L 161.379070 95.716328 L 161.420246 95.685429 L 161.504187 95.625753 L 161.546908 95.597008 L 161.633803 95.541738 L 161.677943 95.515233 L 161.767587 95.464498 L 161.813030 95.440302 L 161.905149 95.394258 L 161.951777 95.372433 L 162.046163 95.331184 L 162.093853 95.311789 L 162.190219 95.275461 L 162.238847 95.258545 L 162.336968 95.227222 L 162.386402 95.212832 L 162.485994 95.186604 L 162.536107 95.174778 L 162.636920 95.153711 L 162.687573 95.144480 L 162.789339 95.128631 L 162.840402 95.122020 L 162.942843 95.111431 L 162.994170 95.107458 L 163.097042 95.102154 L 163.148506 95.100829 L 163.251495 95.100829 Z M 147.152685 136.617923 L 146.912116 136.678843 L 146.684855 136.778529 L 146.477102 136.914261 L 146.294523 137.082337 L 146.142098 137.278172 L 146.023986 137.496424 L 145.943408 137.731141 L 145.902562 137.975919 L 145.902562 138.224081 L 145.943408 138.468859 L 146.023986 138.703576 L 146.142098 138.921828 L 146.294523 139.117663 L 146.477102 139.285739 L 146.684855 139.421471 L 146.912116 139.521157 L 147.152685 139.582077 L 147.400000 139.602571 L 147.647315 139.582077 L 147.887884 139.521157 L 148.115145 139.421471 L 148.322898 139.285739 L 148.505477 139.117663 L 148.657902 138.921828 L 148.776014 138.703576 L 148.856592 138.468859 L 148.897438 138.224081 L 148.900000 138.100000 L 148.897438 137.975919 L 148.856592 137.731141 L 148.776014 137.496424 L 148.657902 137.278172 L 148.505477 137.082337 L 148.322898 136.914261 L 148.115145 136.778529 L 147.887884 136.678843 L 147.647315 136.617923 L 147.400000 136.597430 Z M 183.152685 136.617923 L 182.912116 136.678843 L 182.684855 136.778529 L 182.477102 136.914261 L 182.294523 137.082337 L 182.142098 137.278172 L 182.023986 137.496424 L 181.943408 137.731141 L 181.902562 137.975919 L 181.902562 138.224081 L 181.943408 138.468859 L 182.023986 138.703576 L 182.142098 138.921828 L 182.294523 139.117663 L 182.477102 139.285739 L 182.684855 139.421471 L 182.912116 139.521157 L 183.152685 139.582077 L 183.400000 139.602571 L 183.647315 139.582077 L 183.887884 139.521157 L 184.115145 139.421471 L 184.322898 139.285739 L 184.505477 139.117663 L 184.657902 138.921828 L 184.776014 138.703576 L 184.856592 138.468859 L 184.897438 138.224081 L 184.900000 138.100000 L 184.897438 137.975919 L 184.856592 137.731141 L 184.776014 137.496424 L 184.657902 137.278172 L 184.505477 137.082337 L 184.322898 136.914261 L 184.115145 136.778529 L 183.887884 136.678843 L 183.647315 136.617923 L 183.400000 136.597430 Z M 162.952685 96.528121 L 162.712116 96.589041 L 162.484855 96.688727 L 162.277102 96.824459 L 162.094523 96.992535 L 161.942098 97.188370 L 161.823986 97.406622 L 161.743408 97.641339 L 161.702562 97.886117 L 161.702562 98.134279 L 161.743408 98.379057 L 161.823986 98.613774 L 161.942098 98.832026 L 162.094523 99.027861 L 162.277102 99.195937 L 162.484855 99.331669 L 162.712116 99.431355 L 162.952685 99.492275 L 163.200000 99.512769 L 163.447315 99.492275 L 163.687884 99.431355 L 163.915145 99.331669 L 164.122898 99.195937 L 164.305477 99.027861 L 164.457902 98.832026 L 164.576014 98.613774 L 164.656592 98.379057 L 164.697438 98.134279 L 164.700000 98.010198 L 164.697438 97.886117 L 164.656592 97.641339 L 164.576014 97.406622 L 164.457902 97.188370 L 164.305477 96.992535 L 164.122898 96.824459 L 163.915145 96.688727 L 163.687884 96.589041 L 163.447315 96.528121 L 163.200000 96.507628 Z" fill="none" stroke="#00ff00" stroke-width="0.1" /><path d="M 169.517829 128.260589 L 169.573787 128.088363 L 169.573788 128.088360 L 169.656006 127.927002 L 169.762441 127.780505 L 169.762445 127.780500 L 169.890500 127.652445 L 169.890505 127.652441 L 170.037002 127.546006 L 170.198360 127.463788 L 170.198363 127.463787 L 170.370589 127.407829 L 170.549449 127.379500 L 170.549454 127.379500 L 170.730546 127.379500 L 170.730551 127.379500 L 170.909410 127.407829 L 171.081636 127.463787 L 171.081639 127.463788 L 171.191300 127.519664 L 171.242994 127.546004 L 171.242996 127.546005 L 171.242997 127.546006 L 171.389494 127.652441 L 171.389499 127.652445 L 171.517554 127.780500 L 171.517558 127.780505 L 171.610396 127.908287 L 171.623996 127.927006 L 171.638749 127.955961 L 171.706211 128.088360 L 171.706212 128.088363 L 171.711115 128.103453 L 171.762171 128.260591 L 171.774019 128.335397 L 171.790500 128.439448 L 171.790500 128.441304 L 171.790500 128.620551 L 171.776765 128.707259 L 171.762171 128.799409 L 171.706211 128.971639 L 171.623996 129.132994 L 171.517553 129.279501 L 171.389501 129.407553 L 171.242994 129.513996 L 171.081639 129.596211 L 170.909409 129.652171 L 170.817259 129.666765 L 170.730551 129.680500 L 170.549454 129.680500 L 170.549449 129.680500 L 170.453429 129.665291 L 170.370591 129.652171 L 170.284476 129.624191 L 170.198363 129.596212 L 170.198360 129.596211 L 170.142484 129.567740 L 170.037006 129.513996 L 170.018287 129.500396 L 169.890505 129.407558 L 169.890500 129.407554 L 169.762445 129.279499 L 169.762441 129.279494 L 169.656006 129.132997 L 169.573788 128.971639 L 169.573787 128.971636 L 169.517829 128.799410 L 169.489500 128.620551 L 169.489500 128.439448 Z M 170.509474 127.538555 L 170.257317 127.606120 L 170.031239 127.736647 L 169.846647 127.921239 L 169.716120 128.147317 L 169.648555 128.399474 L 169.648555 128.660526 L 169.716120 128.912683 L 169.846647 129.138761 L 170.031239 129.323353 L 170.257317 129.453880 L 170.509474 129.521445 L 170.770526 129.521445 L 171.022683 129.453880 L 171.248761 129.323353 L 171.433353 129.138761 L 171.563880 128.912683 L 171.631445 128.660526 L 171.631445 128.399474 L 171.563880 128.147317 L 171.433353 127.921239 L 171.248761 127.736647 L 171.022683 127.606120 L 170.770526 127.538555 Z M 171.540500 120.821309 L 171.540500 120.998691 L 171.505894 121.172666 L 171.438013 121.336547 L 171.339464 121.484035 L 171.214035 121.609464 L 171.066547 121.708013 L 170.902666 121.775894 L 170.902661 121.775894 L 170.902658 121.775896 L 170.786682 121.798964 L 170.728694 121.810499 L 170.728693 121.810500 L 170.551309 121.810500 L 170.551307 121.810500 L 170.551304 121.810499 L 170.377341 121.775896 L 170.377336 121.775894 L 170.377334 121.775894 L 170.336363 121.758923 L 170.213459 121.708016 L 170.213446 121.708009 L 170.065965 121.609464 L 170.065961 121.609461 L 169.940538 121.484038 L 169.940535 121.484034 L 169.841990 121.336553 L 169.841983 121.336540 L 169.774106 121.172667 L 169.774103 121.172658 L 169.739500 120.998695 L 169.739500 120.821304 L 169.774103 120.647341 L 169.774106 120.647332 L 169.841983 120.483459 L 169.841990 120.483446 L 169.940535 120.335965 L 169.940538 120.335961 L 170.065961 120.210538 L 170.065965 120.210535 L 170.213446 120.111990 L 170.213459 120.111983 L 170.377332 120.044106 L 170.377341 120.044103 L 170.551306 120.009500 L 170.551309 120.009500 L 170.728691 120.009500 L 170.728694 120.009500 L 170.902658 120.044103 L 170.902667 120.044106 L 171.066540 120.111983 L 171.066553 120.111990 L 171.214034 120.210535 L 171.214038 120.210538 L 171.339461 120.335961 L 171.339464 120.335965 L 171.438009 120.483446 L 171.438016 120.483459 L 171.505893 120.647332 L 171.505896 120.647341 L 171.540130 120.819448 Z M 192.377829 120.640589 L 192.433787 120.468363 L 192.433788 120.468360 L 192.516006 120.307002 L 192.622441 120.160505 L 192.622445 120.160500 L 192.750500 120.032445 L 192.750505 120.032441 L 192.897002 119.926006 L 193.058360 119.843788 L 193.058363 119.843787 L 193.230589 119.787829 L 193.409449 119.759500 L 193.409454 119.759500 L 193.590546 119.759500 L 193.590551 119.759500 L 193.769410 119.787829 L 193.941636 119.843787 L 193.941639 119.843788 L 194.051300 119.899664 L 194.102994 119.926004 L 194.102996 119.926005 L 194.102997 119.926006 L 194.249494 120.032441 L 194.249499 120.032445 L 194.377554 120.160500 L 194.377558 120.160505 L 194.470396 120.288287 L 194.483996 120.307006 L 194.498749 120.335961 L 194.566211 120.468360 L 194.566212 120.468363 L 194.571115 120.483453 L 194.622171 120.640591 L 194.634019 120.715397 L 194.650500 120.819448 L 194.650500 121.000551 L 194.636765 121.087259 L 194.622171 121.179409 L 194.566211 121.351639 L 194.483996 121.512994 L 194.377553 121.659501 L 194.249501 121.787553 L 194.102994 121.893996 L 193.941639 121.976211 L 193.769409 122.032171 L 193.677259 122.046765 L 193.590551 122.060500 L 193.409454 122.060500 L 193.409449 122.060500 L 193.313429 122.045291 L 193.230591 122.032171 L 193.144476 122.004191 L 193.058363 121.976212 L 193.058360 121.976211 L 193.002484 121.947740 L 192.897006 121.893996 L 192.878287 121.880396 L 192.750505 121.787558 L 192.750500 121.787554 L 192.622445 121.659499 L 192.622441 121.659494 L 192.516006 121.512997 L 192.433788 121.351639 L 192.433787 121.351636 L 192.377829 121.179410 L 192.349500 121.000551 L 192.349500 120.819448 Z M 193.369474 119.918555 L 193.117317 119.986120 L 192.891239 120.116647 L 192.706647 120.301239 L 192.576120 120.527317 L 192.508555 120.779474 L 192.508555 121.040526 L 192.576120 121.292683 L 192.706647 121.518761 L 192.891239 121.703353 L 193.117317 121.833880 L 193.369474 121.901445 L 193.630526 121.901445 L 193.882683 121.833880 L 194.108761 121.703353 L 194.293353 121.518761 L 194.423880 121.292683 L 194.491445 121.040526 L 194.491445 120.779474 L 194.423880 120.527317 L 194.293353 120.301239 L 194.108761 120.116647 L 193.882683 119.986120 L 193.630526 119.918555 Z M 192.377829 115.560589 L 192.433787 115.388363 L 192.433788 115.388360 L 192.516006 115.227002 L 192.622441 115.080505 L 192.622445 115.080500 L 192.750500 114.952445 L 192.750505 114.952441 L 192.897002 114.846006 L 193.058360 114.763788 L 193.058363 114.763787 L 193.230589 114.707829 L 193.409449 114.679500 L 193.409454 114.679500 L 193.590546 114.679500 L 193.590551 114.679500 L 193.769410 114.707829 L 193.941636 114.763787 L 193.941639 114.763788 L 194.051300 114.819664 L 194.102994 114.846004 L 194.102996 114.846005 L 194.102997 114.846006 L 194.249494 114.952441 L 194.249499 114.952445 L 194.377554 115.080500 L 194.377558 115.080505 L 194.470396 115.208287 L 194.483996 115.227006 L 194.498749 115.255961 L 194.566211 115.388360 L 194.566212 115.388363 L 194.571115 115.403453 L 194.622171 115.560591 L 194.634019 115.635397 L 194.650500 115.739448 L 194.650500 115.920551 L 194.636765 116.007259 L 194.622171 116.099409 L 194.566211 116.271639 L 194.483996 116.432994 L 194.377553 116.579501 L 194.249501 116.707553 L 194.102994 116.813996 L 193.941639 116.896211 L 193.769409 116.952171 L 193.677259 116.966765 L 193.590551 116.980500 L 193.409454 116.980500 L 193.409449 116.980500 L 193.313429 116.965291 L 193.230591 116.952171 L 193.144476 116.924191 L 193.058363 116.896212 L 193.058360 116.896211 L 193.002484 116.867740 L 192.897006 116.813996 L 192.844399 116.775775 L 192.750505 116.707558 L 192.750500 116.707554 L 192.622445 116.579499 L 192.622441 116.579494 L 192.516006 116.432997 L 192.433788 116.271639 L 192.433787 116.271636 L 192.377829 116.099410 L 192.349500 115.920551 L 192.349500 115.739448 Z M 193.369474 114.838555 L 193.117317 114.906120 L 192.891239 115.036647 L 192.706647 115.221239 L 192.576120 115.447317 L 192.508555 115.699474 L 192.508555 115.960526 L 192.576120 116.212683 L 192.706647 116.438761 L 192.891239 116.623353 L 193.117317 116.753880 L 193.369474 116.821445 L 193.630526 116.821445 L 193.882683 116.753880 L 194.108761 116.623353 L 194.293353 116.438761 L 194.423880 116.212683 L 194.491445 115.960526 L 194.491445 115.699474 L 194.423880 115.447317 L 194.293353 115.221239 L 194.108761 115.036647 L 193.882683 114.906120 L 193.630526 114.838555 Z M 162.181572 114.112108 L 162.245317 113.832818 L 162.245321 113.832806 L 162.339929 113.562434 L 162.339935 113.562420 L 162.464223 113.304333 L 162.616633 113.061774 L 162.795242 112.837805 L 162.997805 112.635242 L 163.221774 112.456633 L 163.464333 112.304223 L 163.722420 112.179935 L 163.722434 112.179929 L 163.992806 112.085321 L 163.992818 112.085317 L 164.272108 112.021572 L 164.556762 111.989500 L 164.556767 111.989500 L 164.843233 111.989500 L 164.843237 111.989500 L 165.127892 112.021572 L 165.127891 112.021572 L 165.407181 112.085317 L 165.407193 112.085321 L 165.677565 112.179929 L 165.677579 112.179935 L 165.935666 112.304223 L 165.935669 112.304225 L 166.178227 112.456634 L 166.402195 112.635243 L 166.604757 112.837805 L 166.783366 113.061773 L 166.871039 113.201304 L 166.935775 113.304331 L 167.060068 113.562428 L 167.154682 113.832818 L 167.212928 114.088016 L 167.218427 114.112108 L 167.227259 114.190499 L 167.250500 114.396767 L 167.250500 114.683233 L 167.232160 114.846004 L 167.222753 114.929500 L 167.218426 114.967898 L 167.154682 115.247182 L 167.060068 115.517572 L 167.060062 115.517583 L 167.060061 115.517587 L 166.981167 115.681413 L 166.981166 115.681415 L 166.954167 115.737477 L 166.952324 115.741304 L 166.935775 115.775669 L 166.783366 116.018227 L 166.604757 116.242195 L 166.402195 116.444757 L 166.178227 116.623366 L 165.935669 116.775775 L 165.677572 116.900068 L 165.407182 116.994682 L 165.127898 117.058426 L 165.127892 117.058426 L 165.127891 117.058427 L 165.048815 117.067336 L 164.843236 117.090499 L 164.843236 117.090500 L 164.556767 117.090500 L 164.556764 117.090500 L 164.556763 117.090499 L 164.383131 117.070936 L 164.272107 117.058427 L 164.272108 117.058427 L 164.272105 117.058426 L 164.272102 117.058426 L 163.992818 116.994682 L 163.992812 116.994680 L 163.992806 116.994678 L 163.722434 116.900070 L 163.722428 116.900068 L 163.464331 116.775775 L 163.221773 116.623366 L 162.997805 116.444757 L 162.795243 116.242195 L 162.616634 116.018227 L 162.464225 115.775669 L 162.464223 115.775666 L 162.339935 115.517579 L 162.339929 115.517565 L 162.245321 115.247193 L 162.245317 115.247181 L 162.181572 114.967891 L 162.149500 114.683237 L 162.149500 114.396762 Z M 164.528470 112.798427 L 164.192002 112.865354 L 163.875056 112.996638 L 163.589812 113.187232 L 163.347232 113.429812 L 163.156638 113.715056 L 163.025354 114.032002 L 162.958427 114.368470 L 162.958427 114.711530 L 163.025354 115.047998 L 163.156638 115.364944 L 163.347232 115.650188 L 163.589812 115.892768 L 163.875056 116.083362 L 164.192002 116.214646 L 164.528470 116.281573 L 164.871530 116.281573 L 165.207998 116.214646 L 165.524944 116.083362 L 165.810188 115.892768 L 166.052768 115.650188 L 166.243362 115.364944 L 166.374646 115.047998 L 166.441573 114.711530 L 166.441573 114.368470 L 166.374646 114.032002 L 166.243362 113.715056 L 166.052768 113.429812 L 165.810188 113.187232 L 165.524944 112.996638 L 165.207998 112.865354 L 164.871530 112.798427 Z M 192.634103 128.267341 L 192.634106 128.267332 L 192.701983 128.103459 L 192.701990 128.103446 L 192.800535 127.955965 L 192.800538 127.955961 L 192.925961 127.830538 L 192.925965 127.830535 L 193.073446 127.731990 L 193.073459 127.731983 L 193.237332 127.664106 L 193.237341 127.664103 L 193.411306 127.629500 L 193.411309 127.629500 L 193.588691 127.629500 L 193.588694 127.629500 L 193.762658 127.664103 L 193.762667 127.664106 L 193.926540 127.731983 L 193.926553 127.731990 L 194.074034 127.830535 L 194.074038 127.830538 L 194.199461 127.955961 L 194.199464 127.955965 L 194.298009 128.103446 L 194.298016 128.103459 L 194.365893 128.267332 L 194.365896 128.267341 L 194.400499 128.441304 L 194.400500 128.441306 L 194.400500 128.441309 L 194.400500 128.618691 L 194.365894 128.792666 L 194.298013 128.956547 L 194.199464 129.104035 L 194.074035 129.229464 L 193.926547 129.328013 L 193.762666 129.395894 L 193.762661 129.395894 L 193.762658 129.395896 L 193.646682 129.418964 L 193.588694 129.430499 L 193.588693 129.430500 L 193.411309 129.430500 L 193.411307 129.430500 L 193.411304 129.430499 L 193.237341 129.395896 L 193.237336 129.395894 L 193.237334 129.395894 L 193.196363 129.378923 L 193.073459 129.328016 L 193.073446 129.328009 L 192.925965 129.229464 L 192.925961 129.229461 L 192.800538 129.104038 L 192.800535 129.104034 L 192.701990 128.956553 L 192.701983 128.956540 L 192.634106 128.792667 L 192.634103 128.792658 L 192.599500 128.618695 L 192.599500 128.441304 Z M 169.774103 125.727341 L 169.774106 125.727332 L 169.841983 125.563459 L 169.841990 125.563446 L 169.940535 125.415965 L 169.940538 125.415961 L 170.065961 125.290538 L 170.065965 125.290535 L 170.213446 125.191990 L 170.213459 125.191983 L 170.377332 125.124106 L 170.377341 125.124103 L 170.551306 125.089500 L 170.551309 125.089500 L 170.728691 125.089500 L 170.728694 125.089500 L 170.902658 125.124103 L 170.902667 125.124106 L 171.066540 125.191983 L 171.066553 125.191990 L 171.214034 125.290535 L 171.214038 125.290538 L 171.339461 125.415961 L 171.339464 125.415965 L 171.438009 125.563446 L 171.438016 125.563459 L 171.505893 125.727332 L 171.505896 125.727341 L 171.540499 125.901304 L 171.540500 125.901306 L 171.540500 125.901309 L 171.540500 126.078691 L 171.505894 126.252666 L 171.438013 126.416547 L 171.339464 126.564035 L 171.214035 126.689464 L 171.066547 126.788013 L 170.902666 126.855894 L 170.902661 126.855894 L 170.902658 126.855896 L 170.786682 126.878964 L 170.728694 126.890499 L 170.728693 126.890500 L 170.551309 126.890500 L 170.551307 126.890500 L 170.551304 126.890499 L 170.377341 126.855896 L 170.377336 126.855894 L 170.377334 126.855894 L 170.336363 126.838923 L 170.213459 126.788016 L 170.213446 126.788009 L 170.065965 126.689464 L 170.065961 126.689461 L 169.940538 126.564038 L 169.940535 126.564034 L 169.841990 126.416553 L 169.841983 126.416540 L 169.774106 126.252667 L 169.774103 126.252658 L 169.739500 126.078695 L 169.739500 125.901304 Z M 169.774103 123.187341 L 169.774106 123.187332 L 169.841983 123.023459 L 169.841990 123.023446 L 169.940535 122.875965 L 169.940538 122.875961 L 170.065961 122.750538 L 170.065965 122.750535 L 170.213446 122.651990 L 170.213459 122.651983 L 170.377332 122.584106 L 170.377341 122.584103 L 170.551306 122.549500 L 170.551309 122.549500 L 170.728691 122.549500 L 170.728694 122.549500 L 170.902658 122.584103 L 170.902667 122.584106 L 171.066540 122.651983 L 171.066553 122.651990 L 171.214034 122.750535 L 171.214038 122.750538 L 171.339461 122.875961 L 171.339464 122.875965 L 171.438009 123.023446 L 171.438016 123.023459 L 171.505893 123.187332 L 171.505896 123.187341 L 171.540499 123.361304 L 171.540500 123.361306 L 171.540500 123.538693 L 171.540499 123.538695 L 171.517415 123.654749 L 171.505894 123.712666 L 171.438013 123.876547 L 171.339464 124.024035 L 171.214035 124.149464 L 171.066547 124.248013 L 170.902666 124.315894 L 170.902661 124.315894 L 170.902658 124.315896 L 170.786682 124.338964 L 170.728694 124.350499 L 170.728693 124.350500 L 170.551309 124.350500 L 170.551307 124.350500 L 170.551304 124.350499 L 170.377341 124.315896 L 170.377336 124.315894 L 170.377334 124.315894 L 170.336363 124.298923 L 170.213459 124.248016 L 170.213446 124.248009 L 170.065965 124.149464 L 170.065961 124.149461 L 169.940538 124.024038 L 169.940535 124.024034 L 169.841990 123.876553 L 169.841983 123.876540 L 169.774106 123.712667 L 169.774103 123.712658 L 169.739500 123.538695 L 169.739500 123.361304 Z M 192.634103 123.187341 L 192.634106 123.187332 L 192.701983 123.023459 L 192.701990 123.023446 L 192.800535 122.875965 L 192.800538 122.875961 L 192.925961 122.750538 L 192.925965 122.750535 L 193.073446 122.651990 L 193.073459 122.651983 L 193.237332 122.584106 L 193.237341 122.584103 L 193.411306 122.549500 L 193.411309 122.549500 L 193.588691 122.549500 L 193.588694 122.549500 L 193.762658 122.584103 L 193.762667 122.584106 L 193.926540 122.651983 L 193.926553 122.651990 L 194.074034 122.750535 L 194.074038 122.750538 L 194.199461 122.875961 L 194.199464 122.875965 L 194.298009 123.023446 L 194.298016 123.023459 L 194.365893 123.187332 L 194.365896 123.187341 L 194.400499 123.361304 L 194.400500 123.361306 L 194.400500 123.538693 L 194.400499 123.538695 L 194.377415 123.654749 L 194.365894 123.712666 L 194.298013 123.876547 L 194.199464 124.024035 L 194.074035 124.149464 L 193.926547 124.248013 L 193.762666 124.315894 L 193.762661 124.315894 L 193.762658 124.315896 L 193.646682 124.338964 L 193.588694 124.350499 L 193.588693 124.350500 L 193.411309 124.350500 L 193.411307 124.350500 L 193.411304 124.350499 L 193.237341 124.315896 L 193.237336 124.315894 L 193.237334 124.315894 L 193.196363 124.298923 L 193.073459 124.248016 L 193.073446 124.248009 L 192.925965 124.149464 L 192.925961 124.149461 L 192.800538 124.024038 L 192.800535 124.024034 L 192.701990 123.876553 L 192.701983 123.876540 L 192.634106 123.712667 L 192.634103 123.712658 L 192.599500 123.538695 L 192.599500 123.361304 Z M 169.774103 118.107341 L 169.774106 118.107332 L 169.841983 117.943459 L 169.841990 117.943446 L 169.940535 117.795965 L 169.940538 117.795961 L 170.065961 117.670538 L 170.065965 117.670535 L 170.213446 117.571990 L 170.213459 117.571983 L 170.377332 117.504106 L 170.377341 117.504103 L 170.551306 117.469500 L 170.551309 117.469500 L 170.728691 117.469500 L 170.728694 117.469500 L 170.902658 117.504103 L 170.902667 117.504106 L 171.066540 117.571983 L 171.066553 117.571990 L 171.214034 117.670535 L 171.214038 117.670538 L 171.339461 117.795961 L 171.339464 117.795965 L 171.438009 117.943446 L 171.438016 117.943459 L 171.505893 118.107332 L 171.505896 118.107341 L 171.540499 118.281304 L 171.540500 118.281306 L 171.540500 118.281309 L 171.540500 118.458691 L 171.505894 118.632666 L 171.438013 118.796547 L 171.339464 118.944035 L 171.214035 119.069464 L 171.066547 119.168013 L 170.902666 119.235894 L 170.902661 119.235894 L 170.902658 119.235896 L 170.786682 119.258964 L 170.728694 119.270499 L 170.728693 119.270500 L 170.551309 119.270500 L 170.551307 119.270500 L 170.551304 119.270499 L 170.377341 119.235896 L 170.377336 119.235894 L 170.377334 119.235894 L 170.336363 119.218923 L 170.213459 119.168016 L 170.213446 119.168009 L 170.065965 119.069464 L 170.065961 119.069461 L 169.940538 118.944038 L 169.940535 118.944034 L 169.841990 118.796553 L 169.841983 118.796540 L 169.774106 118.632667 L 169.774103 118.632658 L 169.739500 118.458695 L 169.739500 118.281304 Z M 192.634103 118.107341 L 192.634106 118.107332 L 192.701983 117.943459 L 192.701990 117.943446 L 192.800535 117.795965 L 192.800538 117.795961 L 192.925961 117.670538 L 192.925965 117.670535 L 193.073446 117.571990 L 193.073459 117.571983 L 193.237332 117.504106 L 193.237341 117.504103 L 193.411306 117.469500 L 193.411309 117.469500 L 193.588691 117.469500 L 193.588694 117.469500 L 193.762658 117.504103 L 193.762667 117.504106 L 193.926540 117.571983 L 193.926553 117.571990 L 194.074034 117.670535 L 194.074038 117.670538 L 194.199461 117.795961 L 194.199464 117.795965 L 194.298009 117.943446 L 194.298016 117.943459 L 194.365893 118.107332 L 194.365896 118.107341 L 194.400499 118.281304 L 194.400500 118.281306 L 194.400500 118.281309 L 194.400500 118.458691 L 194.365894 118.632666 L 194.298013 118.796547 L 194.199464 118.944035 L 194.074035 119.069464 L 193.926547 119.168013 L 193.762666 119.235894 L 193.762661 119.235894 L 193.762658 119.235896 L 193.646682 119.258964 L 193.588694 119.270499 L 193.588693 119.270500 L 193.411309 119.270500 L 193.411307 119.270500 L 193.411304 119.270499 L 193.237341 119.235896 L 193.237336 119.235894 L 193.237334 119.235894 L 193.196363 119.218923 L 193.073459 119.168016 L 193.073446 119.168009 L 192.925965 119.069464 L 192.925961 119.069461 L 192.800538 118.944038 L 192.800535 118.944034 L 192.701990 118.796553 L 192.701983 118.796540 L 192.634106 118.632667 L 192.634103 118.632658 L 192.599500 118.458695 L 192.599500 118.281304 Z M 169.774103 115.567341 L 169.774106 115.567332 L 169.841983 115.403459 L 169.841990 115.403446 L 169.940535 115.255965 L 169.940538 115.255961 L 170.065961 115.130538 L 170.065965 115.130535 L 170.213446 115.031990 L 170.213459 115.031983 L 170.377332 114.964106 L 170.377341 114.964103 L 170.551306 114.929500 L 170.551309 114.929500 L 170.728691 114.929500 L 170.728694 114.929500 L 170.902658 114.964103 L 170.902667 114.964106 L 171.066540 115.031983 L 171.066553 115.031990 L 171.214034 115.130535 L 171.214038 115.130538 L 171.339461 115.255961 L 171.339464 115.255965 L 171.438009 115.403446 L 171.438016 115.403459 L 171.471626 115.484602 L 171.500867 115.555199 L 171.505893 115.567332 L 171.505896 115.567341 L 171.540130 115.739448 L 171.540500 115.741309 L 171.540500 115.741314 L 171.540500 115.918693 L 171.540499 115.918695 L 171.508502 116.079558 L 171.505894 116.092666 L 171.438013 116.256547 L 171.339464 116.404035 L 171.214035 116.529464 L 171.066547 116.628013 L 170.902666 116.695894 L 170.902661 116.695894 L 170.902658 116.695896 L 170.786682 116.718964 L 170.728694 116.730499 L 170.728693 116.730500 L 170.551309 116.730500 L 170.551307 116.730500 L 170.551304 116.730499 L 170.377341 116.695896 L 170.377336 116.695894 L 170.377334 116.695894 L 170.336363 116.678923 L 170.213459 116.628016 L 170.213446 116.628009 L 170.065965 116.529464 L 170.065961 116.529461 L 169.940538 116.404038 L 169.940535 116.404034 L 169.841990 116.256553 L 169.841983 116.256540 L 169.774106 116.092667 L 169.774103 116.092658 L 169.739500 115.918695 L 169.739500 115.741304 Z M 169.774103 113.027341 L 169.774106 113.027332 L 169.841983 112.863459 L 169.841990 112.863446 L 169.940535 112.715965 L 169.940538 112.715961 L 170.065961 112.590538 L 170.065965 112.590535 L 170.213446 112.491990 L 170.213459 112.491983 L 170.377332 112.424106 L 170.377341 112.424103 L 170.551306 112.389500 L 170.551309 112.389500 L 170.728691 112.389500 L 170.728694 112.389500 L 170.902658 112.424103 L 170.902667 112.424106 L 171.066540 112.491983 L 171.066553 112.491990 L 171.214034 112.590535 L 171.214038 112.590538 L 171.339461 112.715961 L 171.339464 112.715965 L 171.438009 112.863446 L 171.438016 112.863459 L 171.505893 113.027332 L 171.505896 113.027341 L 171.540499 113.201304 L 171.540500 113.201306 L 171.540500 113.201309 L 171.540500 113.378691 L 171.505894 113.552666 L 171.438013 113.716547 L 171.339464 113.864035 L 171.214035 113.989464 L 171.066547 114.088013 L 170.902666 114.155894 L 170.902661 114.155894 L 170.902658 114.155896 L 170.786682 114.178964 L 170.728694 114.190499 L 170.728693 114.190500 L 170.551309 114.190500 L 170.551307 114.190500 L 170.551304 114.190499 L 170.377341 114.155896 L 170.377336 114.155894 L 170.377334 114.155894 L 170.336363 114.138923 L 170.213459 114.088016 L 170.213446 114.088009 L 170.065965 113.989464 L 170.065961 113.989461 L 169.940538 113.864038 L 169.940535 113.864034 L 169.841990 113.716553 L 169.841983 113.716540 L 169.774106 113.552667 L 169.774103 113.552658 L 169.739500 113.378695 L 169.739500 113.201304 Z M 192.634103 113.027341 L 192.634106 113.027332 L 192.701983 112.863459 L 192.701990 112.863446 L 192.800535 112.715965 L 192.800538 112.715961 L 192.925961 112.590538 L 192.925965 112.590535 L 193.073446 112.491990 L 193.073459 112.491983 L 193.237332 112.424106 L 193.237341 112.424103 L 193.411306 112.389500 L 193.411309 112.389500 L 193.588691 112.389500 L 193.588694 112.389500 L 193.762658 112.424103 L 193.762667 112.424106 L 193.926540 112.491983 L 193.926553 112.491990 L 194.074034 112.590535 L 194.074038 112.590538 L 194.199461 112.715961 L 194.199464 112.715965 L 194.298009 112.863446 L 194.298016 112.863459 L 194.365893 113.027332 L 194.365896 113.027341 L 194.400499 113.201304 L 194.400500 113.201306 L 194.400500 113.201309 L 194.400500 113.378691 L 194.365894 113.552666 L 194.298013 113.716547 L 194.199464 113.864035 L 194.074035 113.989464 L 193.926547 114.088013 L 193.762666 114.155894 L 193.762661 114.155894 L 193.762658 114.155896 L 193.646682 114.178964 L 193.588694 114.190499 L 193.588693 114.190500 L 193.411309 114.190500 L 193.411307 114.190500 L 193.411304 114.190499 L 193.237341 114.155896 L 193.237336 114.155894 L 193.237334 114.155894 L 193.196363 114.138923 L 193.073459 114.088016 L 193.073446 114.088009 L 192.925965 113.989464 L 192.925961 113.989461 L 192.800538 113.864038 L 192.800535 113.864034 L 192.701990 113.716553 L 192.701983 113.716540 L 192.634106 113.552667 L 192.634103 113.552658 L 192.599500 113.378695 L 192.599500 113.201304 Z M 163.302961 95.102155 L 163.405826 95.107457 L 163.457159 95.111431 L 163.559596 95.122020 L 163.610659 95.128631 L 163.712429 95.144481 L 163.763076 95.153710 L 163.863897 95.174779 L 163.914005 95.186604 L 164.013599 95.212833 L 164.063032 95.227222 L 164.161152 95.258545 L 164.209779 95.275460 L 164.306148 95.311790 L 164.353834 95.331183 L 164.448224 95.372434 L 164.494853 95.394259 L 164.586970 95.440302 L 164.632416 95.464499 L 164.722055 95.515232 L 164.766192 95.541735 L 164.853097 95.597012 L 164.895815 95.625755 L 164.979751 95.685427 L 165.020926 95.716325 L 165.101701 95.780256 L 165.141234 95.813236 L 165.218586 95.881219 L 165.256370 95.916191 L 165.330138 95.988084 L 165.366065 96.024948 L 165.436029 96.100538 L 165.470015 96.139208 L 165.535994 96.218296 L 165.567946 96.258666 L 165.629764 96.341044 L 165.659594 96.383003 L 165.717093 96.468460 L 165.744726 96.511904 L 165.797740 96.600191 L 165.823099 96.644998 L 165.871511 96.735921 L 165.894532 96.781980 L 165.938181 96.875237 L 165.958804 96.922426 L 165.997604 97.017830 L 166.015763 97.065999 L 166.049607 97.163291 L 166.065265 97.212340 L 166.094043 97.311210 L 166.107157 97.361004 L 166.130815 97.461251 L 166.141346 97.511645 L 166.159810 97.612968 L 166.167734 97.663845 L 166.180958 97.765978 L 166.186252 97.817190 L 166.194201 97.919884 L 166.198856 98.010198 L 167.100000 98.010198 L 167.242861 98.012746 L 167.525674 98.053408 L 167.799821 98.133905 L 168.059723 98.252598 L 168.300087 98.407070 L 168.516021 98.594178 L 168.703128 98.810112 L 168.857601 99.050476 L 168.976294 99.310377 L 169.056791 99.584524 L 169.097454 99.867337 L 169.100000 100.010198 L 169.100000 107.400000 L 169.102548 107.542861 L 169.143210 107.825674 L 169.223707 108.099821 L 169.342400 108.359722 L 169.496873 108.600086 L 169.683980 108.816020 L 169.899914 109.003127 L 170.140278 109.157600 L 170.400179 109.276293 L 170.674326 109.356790 L 170.957139 109.397452 L 171.100000 109.400000 L 193.700000 109.400000 L 193.842861 109.402548 L 194.125674 109.443210 L 194.399821 109.523707 L 194.659722 109.642400 L 194.900086 109.796873 L 195.116020 109.983980 L 195.303127 110.199914 L 195.457600 110.440278 L 195.576293 110.700179 L 195.656790 110.974326 L 195.697452 111.257139 L 195.700000 111.400000 L 195.700000 136.010198 L 195.697573 136.153067 L 195.656908 136.435898 L 195.576406 136.710062 L 195.457706 136.969979 L 195.303225 137.210357 L 195.116106 137.426304 L 194.900159 137.613423 L 194.659781 137.767905 L 194.399864 137.886606 L 194.125699 137.967108 L 193.842869 138.007772 L 193.700000 138.010198 L 185.905921 138.010198 L 185.905842 138.021396 L 185.902688 138.120388 L 185.900668 138.156032 L 185.891068 138.268828 L 185.887835 138.297266 L 185.871871 138.409320 L 185.867035 138.437523 L 185.844752 138.548527 L 185.838328 138.576411 L 185.809807 138.685945 L 185.801814 138.713429 L 185.767137 138.821190 L 185.757602 138.848176 L 185.716890 138.953788 L 185.705843 138.980194 L 185.659217 139.083342 L 185.646698 139.109071 L 185.594304 139.209429 L 185.580349 139.234410 L 185.522372 139.331626 L 185.507018 139.355790 L 185.443637 139.449564 L 185.426950 139.472807 L 185.358343 139.562877 L 185.340364 139.585143 L 185.266804 139.671147 L 185.247578 139.692378 L 185.169267 139.774087 L 185.148888 139.794180 L 185.066048 139.871357 L 185.044568 139.890261 L 184.957522 139.962604 L 184.935002 139.980267 L 184.843982 140.047586 L 184.820499 140.063946 L 184.725838 140.125992 L 184.701468 140.140997 L 184.603424 140.197603 L 184.578245 140.211205 L 184.477178 140.262162 L 184.451272 140.274317 L 184.347459 140.319486 L 184.320910 140.330154 L 184.214727 140.369369 L 184.187610 140.378521 L 184.079369 140.411669 L 184.051775 140.419272 L 183.941850 140.446240 L 183.913872 140.452270 L 183.802574 140.472979 L 183.774299 140.477416 L 183.662034 140.491792 L 183.633545 140.494623 L 183.520633 140.502626 L 183.492038 140.503841 L 183.378854 140.505443 L 183.350244 140.505038 L 183.237135 140.500233 L 183.208592 140.498210 L 183.095953 140.487015 L 183.067564 140.483380 L 182.955735 140.465830 L 182.927594 140.460594 L 182.816946 140.436748 L 182.789151 140.429929 L 182.680014 140.399857 L 182.652647 140.391476 L 182.545405 140.355283 L 182.518551 140.345365 L 182.413517 140.303159 L 182.387270 140.291739 L 182.284800 140.243662 L 182.259233 140.230772 L 182.159653 140.176977 L 182.134871 140.162670 L 182.038461 140.103308 L 182.014536 140.087626 L 181.921656 140.022916 L 181.898647 140.005898 L 181.809578 139.936039 L 181.787565 139.917744 L 181.702596 139.842963 L 181.681655 139.823453 L 181.601045 139.743976 L 181.581240 139.723312 L 181.505266 139.639413 L 181.486658 139.617657 L 181.415549 139.529590 L 181.398205 139.506820 L 181.332190 139.414868 L 181.316162 139.391153 L 181.255456 139.295617 L 181.240799 139.271041 L 181.185587 139.172205 L 181.172344 139.146838 L 181.122822 139.045059 L 181.111031 139.018974 L 181.067343 138.914550 L 181.057051 138.887852 L 181.019335 138.781106 L 181.010568 138.753862 L 180.978962 138.645186 L 180.971748 138.617480 L 180.946337 138.507175 L 180.940703 138.479111 L 180.921573 138.367548 L 180.917537 138.339216 L 180.904748 138.226733 L 180.902321 138.198215 L 180.895918 138.085213 L 180.893794 138.010198 L 149.905921 138.010198 L 149.905842 138.021396 L 149.902688 138.120388 L 149.900668 138.156032 L 149.891068 138.268828 L 149.887835 138.297266 L 149.871871 138.409320 L 149.867035 138.437523 L 149.844752 138.548527 L 149.838328 138.576411 L 149.809807 138.685945 L 149.801814 138.713429 L 149.767137 138.821190 L 149.757602 138.848176 L 149.716890 138.953788 L 149.705843 138.980194 L 149.659217 139.083342 L 149.646698 139.109071 L 149.594304 139.209429 L 149.580349 139.234410 L 149.522372 139.331626 L 149.507018 139.355790 L 149.443637 139.449564 L 149.426950 139.472807 L 149.358343 139.562877 L 149.340364 139.585143 L 149.266804 139.671147 L 149.247578 139.692378 L 149.169267 139.774087 L 149.148888 139.794180 L 149.066048 139.871357 L 149.044568 139.890261 L 148.957522 139.962604 L 148.935002 139.980267 L 148.843982 140.047586 L 148.820499 140.063946 L 148.725838 140.125992 L 148.701468 140.140997 L 148.603424 140.197603 L 148.578245 140.211205 L 148.477178 140.262162 L 148.451272 140.274317 L 148.347459 140.319486 L 148.320910 140.330154 L 148.214727 140.369369 L 148.187610 140.378521 L 148.079369 140.411669 L 148.051775 140.419272 L 147.941850 140.446240 L 147.913872 140.452270 L 147.802574 140.472979 L 147.774299 140.477416 L 147.662034 140.491792 L 147.633545 140.494623 L 147.520633 140.502626 L 147.492038 140.503841 L 147.378854 140.505443 L 147.350244 140.505038 L 147.237135 140.500233 L 147.208592 140.498210 L 147.095953 140.487015 L 147.067564 140.483380 L 146.955735 140.465830 L 146.927594 140.460594 L 146.816946 140.436748 L 146.789151 140.429929 L 146.680014 140.399857 L 146.652647 140.391476 L 146.545405 140.355283 L 146.518551 140.345365 L 146.413517 140.303159 L 146.387270 140.291739 L 146.284800 140.243662 L 146.259233 140.230772 L 146.159653 140.176977 L 146.134871 140.162670 L 146.038461 140.103308 L 146.014536 140.087626 L 145.921656 140.022916 L 145.898647 140.005898 L 145.809578 139.936039 L 145.787565 139.917744 L 145.702596 139.842963 L 145.681655 139.823453 L 145.601045 139.743976 L 145.581240 139.723312 L 145.505266 139.639413 L 145.486658 139.617657 L 145.415549 139.529590 L 145.398205 139.506820 L 145.332190 139.414868 L 145.316162 139.391153 L 145.255456 139.295617 L 145.240799 139.271041 L 145.185587 139.172205 L 145.172344 139.146838 L 145.122822 139.045059 L 145.111031 139.018974 L 145.067343 138.914550 L 145.057051 138.887852 L 145.019335 138.781106 L 145.010568 138.753862 L 144.978962 138.645186 L 144.971748 138.617480 L 144.946337 138.507175 L 144.940703 138.479111 L 144.921573 138.367548 L 144.917537 138.339216 L 144.904748 138.226733 L 144.902321 138.198215 L 144.895918 138.085213 L 144.893794 138.010198 L 132.700000 138.010198 L 132.557131 138.007770 L 132.274301 137.967106 L 132.000137 137.886604 L 131.740220 137.767904 L 131.499842 137.613422 L 131.283896 137.426303 L 131.096777 137.210356 L 130.942295 136.969978 L 130.823596 136.710061 L 130.743094 136.435897 L 130.702429 136.153067 L 130.700000 136.010198 L 130.700000 100.010198 L 130.702548 99.867337 L 130.743211 99.584525 L 130.823708 99.310377 L 130.942401 99.050477 L 131.096873 98.810113 L 131.283981 98.594179 L 131.499914 98.407072 L 131.740278 98.252600 L 132.000179 98.133907 L 132.274327 98.053410 L 132.557139 98.012748 L 132.700000 98.010198 L 160.201144 98.010198 L 160.205799 97.919888 L 160.213749 97.817186 L 160.219043 97.765977 L 160.232266 97.663845 L 160.240189 97.612970 L 160.258654 97.511643 L 160.269187 97.461240 L 160.292840 97.361015 L 160.305955 97.311214 L 160.334737 97.212336 L 160.350394 97.163290 L 160.384236 97.066001 L 160.402395 97.017833 L 160.441197 96.922424 L 160.461818 96.875240 L 160.505470 96.781976 L 160.528489 96.735921 L 160.576901 96.644998 L 160.602259 96.600193 L 160.655275 96.511903 L 160.682906 96.468462 L 160.740408 96.383001 L 160.770234 96.341047 L 160.832056 96.258664 L 160.864009 96.218292 L 160.929982 96.139211 L 160.963971 96.100538 L 161.033934 96.024949 L 161.069862 95.988084 L 161.143630 95.916191 L 161.181414 95.881219 L 161.258766 95.813236 L 161.298303 95.780253 L 161.379070 95.716328 L 161.420246 95.685429 L 161.504187 95.625753 L 161.546908 95.597008 L 161.633803 95.541738 L 161.677943 95.515233 L 161.767587 95.464498 L 161.813030 95.440302 L 161.905149 95.394258 L 161.951777 95.372433 L 162.046163 95.331184 L 162.093853 95.311789 L 162.190219 95.275461 L 162.238847 95.258545 L 162.336968 95.227222 L 162.386402 95.212832 L 162.485994 95.186604 L 162.536107 95.174778 L 162.636920 95.153711 L 162.687573 95.144480 L 162.789339 95.128631 L 162.840402 95.122020 L 162.942843 95.111431 L 162.994170 95.107458 L 163.097042 95.102154 L 163.148506 95.100829 L 163.251495 95.100829 Z M 147.152685 136.617923 L 146.912116 136.678843 L 146.684855 136.778529 L 146.477102 136.914261 L 146.294523 137.082337 L 146.142098 137.278172 L 146.023986 137.496424 L 145.943408 137.731141 L 145.902562 137.975919 L 145.902562 138.224081 L 145.943408 138.468859 L 146.023986 138.703576 L 146.142098 138.921828 L 146.294523 139.117663 L 146.477102 139.285739 L 146.684855 139.421471 L 146.912116 139.521157 L 147.152685 139.582077 L 147.400000 139.602571 L 147.647315 139.582077 L 147.887884 139.521157 L 148.115145 139.421471 L 148.322898 139.285739 L 148.505477 139.117663 L 148.657902 138.921828 L 148.776014 138.703576 L 148.856592 138.468859 L 148.897438 138.224081 L 148.900000 138.100000 L 148.897438 137.975919 L 148.856592 137.731141 L 148.776014 137.496424 L 148.657902 137.278172 L 148.505477 137.082337 L 148.322898 136.914261 L 148.115145 136.778529 L 147.887884 136.678843 L 147.647315 136.617923 L 147.400000 136.597430 Z M 183.152685 136.617923 L 182.912116 136.678843 L 182.684855 136.778529 L 182.477102 136.914261 L 182.294523 137.082337 L 182.142098 137.278172 L 182.023986 137.496424 L 181.943408 137.731141 L 181.902562 137.975919 L 181.902562 138.224081 L 181.943408 138.468859 L 182.023986 138.703576 L 182.142098 138.921828 L 182.294523 139.117663 L 182.477102 139.285739 L 182.684855 139.421471 L 182.912116 139.521157 L 183.152685 139.582077 L 183.400000 139.602571 L 183.647315 139.582077 L 183.887884 139.521157 L 184.115145 139.421471 L 184.322898 139.285739 L 184.505477 139.117663 L 184.657902 138.921828 L 184.776014 138.703576 L 184.856592 138.468859 L 184.897438 138.224081 L 184.900000 138.100000 L 184.897438 137.975919 L 184.856592 137.731141 L 184.776014 137.496424 L 184.657902 137.278172 L 184.505477 137.082337 L 184.322898 136.914261 L 184.115145 136.778529 L 183.887884 136.678843 L 183.647315 136.617923 L 183.400000 136.597430 Z M 132.757583 98.410698 L 132.704451 98.410698 L 132.695614 98.411013 L 132.481207 98.426348 L 132.463706 98.428865 L 132.258027 98.473607 L 132.241069 98.478586 L 132.043841 98.552148 L 132.027769 98.559488 L 131.843021 98.660369 L 131.828151 98.669925 L 131.659643 98.796068 L 131.646286 98.807642 L 131.497443 98.956485 L 131.485869 98.969842 L 131.359729 99.138346 L 131.350170 99.153218 L 131.249289 99.337967 L 131.241950 99.354036 L 131.168384 99.551274 L 131.163407 99.568225 L 131.118666 99.773899 L 131.116148 99.791405 L 131.108827 99.893775 L 131.100816 100.005779 L 131.100500 100.014625 L 131.100500 113.517078 L 131.113619 113.572589 L 131.161233 113.623724 L 131.228933 113.640999 L 131.295226 113.618930 L 131.338281 113.565495 L 131.338422 113.565563 L 131.338711 113.564960 L 131.339064 113.564524 L 131.339933 113.562423 L 131.464223 113.304333 L 131.616633 113.061774 L 131.795242 112.837805 L 131.997805 112.635242 L 132.221774 112.456633 L 132.464333 112.304223 L 132.722420 112.179935 L 132.722434 112.179929 L 132.992806 112.085321 L 132.992818 112.085317 L 133.272108 112.021572 L 133.556762 111.989500 L 133.556767 111.989500 L 133.843233 111.989500 L 133.843237 111.989500 L 134.127892 112.021572 L 134.127891 112.021572 L 134.407181 112.085317 L 134.407193 112.085321 L 134.677565 112.179929 L 134.677579 112.179935 L 134.935666 112.304223 L 134.935669 112.304225 L 135.178227 112.456634 L 135.402195 112.635243 L 135.604757 112.837805 L 135.783366 113.061773 L 135.935775 113.304331 L 136.060068 113.562428 L 136.154682 113.832818 L 136.212928 114.088016 L 136.218427 114.112108 L 136.227259 114.190499 L 136.250499 114.396762 L 136.250500 114.396767 L 136.250500 114.683233 L 136.232160 114.846004 L 136.222753 114.929500 L 136.218426 114.967898 L 136.154682 115.247182 L 136.087507 115.439153 L 136.082272 115.459511 L 136.090552 115.528887 L 136.093364 115.535457 L 136.100995 115.554334 L 136.101328 115.555208 L 136.108084 115.574054 L 136.196393 115.836644 L 136.205425 115.866523 L 136.205799 115.867914 L 136.212942 115.898159 L 136.237427 116.018227 L 136.245309 116.056878 L 136.252249 116.079558 L 136.257675 116.092658 L 136.258936 116.095701 L 136.259674 116.099410 L 136.288076 116.242194 L 136.288076 116.242195 L 136.289698 116.250353 L 136.289699 116.250357 L 136.289699 116.438133 L 136.289975 116.446406 L 136.292737 116.487705 L 136.290136 116.521842 L 136.290057 116.522892 L 136.289699 116.532308 L 136.289699 117.712368 L 136.290399 117.720055 L 136.290050 117.721694 L 136.290613 117.729162 L 136.290886 117.730132 L 136.294645 117.771842 L 136.296107 117.802000 L 136.296232 117.803654 L 136.297817 117.816153 L 136.322538 117.954278 L 136.327227 117.972422 L 136.359176 118.066107 L 136.369176 118.095431 L 136.377008 118.113534 L 136.420204 118.194928 L 136.432885 118.214234 L 136.447217 118.232160 L 136.449555 118.235084 L 136.464425 118.250454 L 136.464755 118.250973 L 136.465065 118.251116 L 136.465811 118.251887 L 136.497110 118.265936 L 136.528171 118.280302 L 136.528878 118.280407 L 136.535417 118.281304 L 136.542467 118.282271 L 136.543600 118.282595 L 136.548673 118.283350 L 136.566907 118.284698 L 136.947723 118.284698 L 136.947731 118.284698 L 136.947738 118.284698 L 136.947761 118.284699 L 137.000767 118.287515 L 137.232454 118.332324 L 137.232459 118.332325 L 137.422192 118.403927 L 137.453248 118.415647 L 137.656781 118.535085 L 137.837197 118.687199 L 137.989311 118.867615 L 137.989312 118.867617 L 137.989313 118.867618 L 138.108750 119.071150 L 138.192072 119.291938 L 138.236882 119.523632 L 138.239699 119.576666 L 138.239699 120.821304 L 138.239699 122.493730 L 138.236882 122.546764 L 138.192072 122.778458 L 138.108750 122.999246 L 138.094541 123.023459 L 137.989311 123.202781 L 137.928179 123.275287 L 137.855655 123.361304 L 137.837197 123.383196 L 137.656779 123.535312 L 137.453247 123.654749 L 137.232459 123.738071 L 137.000765 123.782881 L 136.947731 123.785698 L 136.947723 123.785698 L 134.030675 123.785698 L 134.030667 123.785698 L 133.977633 123.782881 L 133.745939 123.738071 L 133.525151 123.654749 L 133.321619 123.535312 L 133.321618 123.535311 L 133.321616 123.535310 L 133.141200 123.383196 L 132.989086 123.202780 L 132.869648 122.999247 L 132.823122 122.875961 L 132.786326 122.778458 L 132.761866 122.651987 L 132.741516 122.546767 L 132.741516 122.546766 L 132.738700 122.493760 L 132.738699 122.493721 L 132.738699 119.576674 L 132.738700 119.576635 L 132.741516 119.523629 L 132.741516 119.523628 L 132.786325 119.291942 L 132.786325 119.291940 L 132.786326 119.291938 L 132.833095 119.168009 L 132.869648 119.071148 L 132.989086 118.867615 L 133.141200 118.687199 L 133.321616 118.535085 L 133.525149 118.415647 L 133.656959 118.365904 L 133.745939 118.332325 L 133.745941 118.332324 L 133.745943 118.332324 L 133.977629 118.287515 L 133.977630 118.287515 L 134.030636 118.284699 L 134.030659 118.284698 L 134.030667 118.284698 L 134.418353 118.284698 L 134.441444 118.282529 L 134.443225 118.282191 L 134.449467 118.281008 L 134.449481 118.281006 L 134.449583 118.280994 L 134.449602 118.280992 L 134.449694 118.280974 L 134.451827 118.280655 L 134.451813 118.280563 L 134.451823 118.280562 L 134.451820 118.280548 L 134.470824 118.276739 L 134.529617 118.238987 L 134.530838 118.237579 L 134.539602 118.226205 L 134.557729 118.199625 L 134.564524 118.188434 L 134.592489 118.136369 L 134.597616 118.125614 L 134.622549 118.066107 L 134.626300 118.055927 L 134.650782 117.979301 L 134.653532 117.969254 L 134.667249 117.909382 L 134.669563 117.895407 L 134.669640 117.895224 L 134.669702 117.894651 L 134.685291 117.743756 L 134.687033 117.736806 L 134.687958 117.728390 L 134.688699 117.714856 L 134.688699 117.070936 L 134.686377 117.047054 L 134.654150 116.985061 L 134.593522 116.950332 L 134.523744 116.953894 L 134.407182 116.994682 L 134.127898 117.058426 L 134.127892 117.058426 L 134.127891 117.058427 L 134.048815 117.067336 L 133.843236 117.090499 L 133.843236 117.090500 L 133.556767 117.090500 L 133.556764 117.090500 L 133.556763 117.090499 L 133.383131 117.070936 L 133.272107 117.058427 L 133.272108 117.058427 L 133.272105 117.058426 L 133.272102 117.058426 L 132.992818 116.994682 L 132.992812 116.994680 L 132.992806 116.994678 L 132.722434 116.900070 L 132.722428 116.900068 L 132.464331 116.775775 L 132.221773 116.623366 L 131.997805 116.444757 L 131.795243 116.242195 L 131.616634 116.018227 L 131.464225 115.775669 L 131.464223 115.775666 L 131.339933 115.517575 L 131.339067 115.515483 L 131.338641 115.514892 L 131.338422 115.514437 L 131.338340 115.514476 L 131.305703 115.469208 L 131.242147 115.440183 L 131.172989 115.450127 L 131.120185 115.495882 L 131.100500 115.562921 L 131.100500 125.901304 L 131.100500 128.439448 L 131.100500 132.534236 L 131.100500 136.005738 L 131.100816 136.014583 L 131.116149 136.228985 L 131.118665 136.246490 L 131.163409 136.452169 L 131.168389 136.469131 L 131.241950 136.666356 L 131.249290 136.682428 L 131.350170 136.867178 L 131.359728 136.882049 L 131.485861 137.050544 L 131.497447 137.063916 L 131.646280 137.212748 L 131.659650 137.224333 L 131.828147 137.350469 L 131.843030 137.360033 L 131.860321 137.369475 L 132.027757 137.460902 L 132.043850 137.468252 L 132.241063 137.541809 L 132.258039 137.546793 L 132.463700 137.591531 L 132.481211 137.594049 L 132.671230 137.607640 L 132.695582 137.609382 L 132.704428 137.609698 L 144.776066 137.609698 L 144.807950 137.605529 L 144.867674 137.569269 L 144.898313 137.506475 L 144.898984 137.502523 L 144.930813 137.363073 L 144.930814 137.363070 L 144.970414 137.225615 L 144.970417 137.225602 L 145.017649 137.090621 L 145.017659 137.090596 L 145.072391 136.958463 L 145.072402 136.958440 L 145.134457 136.829582 L 145.203643 136.704401 L 145.203655 136.704379 L 145.279733 136.583303 L 145.279740 136.583293 L 145.362518 136.466628 L 145.451697 136.354802 L 145.547007 136.248150 L 145.648150 136.147007 L 145.754802 136.051697 L 145.866628 135.962518 L 145.983293 135.879740 L 145.983303 135.879733 L 146.104379 135.803655 L 146.104401 135.803643 L 146.229582 135.734457 L 146.358440 135.672402 L 146.358463 135.672391 L 146.490596 135.617659 L 146.490621 135.617649 L 146.625602 135.570417 L 146.625615 135.570414 L 146.625616 135.570413 L 146.625621 135.570412 L 146.763067 135.530815 L 146.763070 135.530814 L 146.763073 135.530813 L 146.902525 135.498984 L 147.043524 135.475028 L 147.043577 135.475021 L 147.185655 135.459013 L 147.185667 135.459012 L 147.185670 135.459012 L 147.328482 135.450992 L 147.471518 135.450992 L 147.614330 135.459012 L 147.614333 135.459012 L 147.614344 135.459013 L 147.756422 135.475021 L 147.756475 135.475028 L 147.897474 135.498984 L 147.897482 135.498985 L 147.897483 135.498986 L 147.903700 135.500405 L 148.036926 135.530813 L 148.036929 135.530814 L 148.036933 135.530815 L 148.174379 135.570412 L 148.174386 135.570414 L 148.174397 135.570417 L 148.309378 135.617649 L 148.309403 135.617659 L 148.441536 135.672391 L 148.441559 135.672402 L 148.570417 135.734457 L 148.695598 135.803643 L 148.695620 135.803655 L 148.816696 135.879733 L 148.816706 135.879740 L 148.933371 135.962518 L 148.993159 136.010198 L 149.045196 136.051696 L 149.151850 136.147008 L 149.252992 136.248150 L 149.348304 136.354804 L 149.361490 136.371339 L 149.437481 136.466628 L 149.437485 136.466634 L 149.437486 136.466635 L 149.448423 136.482050 L 149.520259 136.583293 L 149.520266 136.583303 L 149.596344 136.704379 L 149.596353 136.704396 L 149.596357 136.704402 L 149.665547 136.829591 L 149.727608 136.958462 L 149.743651 136.997194 L 149.782340 137.090596 L 149.782350 137.090621 L 149.829582 137.225602 L 149.829583 137.225607 L 149.829588 137.225621 L 149.869185 137.363067 L 149.898919 137.493337 L 149.901015 137.502523 L 149.901687 137.506475 L 149.911140 137.537209 L 149.956895 137.590013 L 150.023934 137.609698 L 180.802053 137.609698 L 180.834000 137.605512 L 180.893705 137.569220 L 180.923010 137.509079 L 180.923781 137.509233 L 180.924119 137.507530 L 180.955630 137.369475 L 180.955631 137.369472 L 180.994831 137.233403 L 181.041604 137.099733 L 181.095785 136.968932 L 181.095796 136.968906 L 181.157216 136.841366 L 181.157217 136.841363 L 181.225720 136.717418 L 181.225734 136.717395 L 181.301054 136.597526 L 181.301066 136.597507 L 181.382987 136.482050 L 181.471278 136.371337 L 181.565630 136.265757 L 181.665757 136.165630 L 181.771337 136.071278 L 181.882050 135.982987 L 181.997507 135.901066 L 181.997526 135.901054 L 182.117395 135.825734 L 182.117418 135.825720 L 182.241363 135.757217 L 182.241366 135.757216 L 182.368906 135.695796 L 182.368932 135.695785 L 182.499733 135.641604 L 182.633403 135.594831 L 182.769472 135.555631 L 182.769475 135.555630 L 182.907521 135.524122 L 182.907535 135.524119 L 183.047107 135.500405 L 183.047160 135.500398 L 183.187810 135.484551 L 183.187820 135.484550 L 183.187824 135.484550 L 183.329201 135.476611 L 183.470799 135.476611 L 183.612176 135.484550 L 183.612180 135.484550 L 183.612189 135.484551 L 183.752839 135.500398 L 183.752892 135.500405 L 183.892464 135.524119 L 183.892478 135.524122 L 183.892480 135.524122 L 183.892483 135.524123 L 183.921793 135.530813 L 184.030524 135.555630 L 184.030527 135.555631 L 184.030531 135.555632 L 184.166596 135.594831 L 184.300266 135.641604 L 184.406354 135.685548 L 184.431070 135.695786 L 184.431074 135.695788 L 184.431093 135.695796 L 184.558633 135.757216 L 184.558636 135.757217 L 184.605093 135.782893 L 184.682577 135.825717 L 184.802472 135.901053 L 184.802473 135.901054 L 184.802492 135.901066 L 184.917949 135.982987 L 184.957610 136.014616 L 185.028661 136.071277 L 185.134243 136.165631 L 185.234369 136.265757 L 185.313944 136.354802 L 185.328721 136.371337 L 185.417012 136.482050 L 185.417011 136.482050 L 185.498933 136.597507 L 185.498940 136.597518 L 185.498947 136.597528 L 185.574283 136.717423 L 185.636271 136.829582 L 185.642782 136.841363 L 185.642783 136.841366 L 185.704203 136.968906 L 185.704207 136.968915 L 185.704214 136.968930 L 185.738020 137.050544 L 185.754620 137.090621 L 185.758402 137.099751 L 185.805169 137.233404 L 185.844368 137.369469 L 185.866208 137.465154 L 185.875880 137.507531 L 185.876219 137.509234 L 185.876533 137.509171 L 185.885153 137.537209 L 185.930908 137.590013 L 185.997947 137.609698 L 193.695600 137.609698 L 193.704445 137.609382 L 193.725630 137.607866 L 193.918789 137.594051 L 193.936300 137.591533 L 194.141961 137.546795 L 194.158937 137.541811 L 194.356150 137.468254 L 194.372243 137.460904 L 194.556969 137.360036 L 194.571853 137.350471 L 194.740353 137.224333 L 194.753723 137.212747 L 194.902548 137.063922 L 194.914134 137.050552 L 195.040272 136.882052 L 195.049837 136.867168 L 195.150706 136.682440 L 195.158056 136.666346 L 195.231610 136.469137 L 195.236594 136.452162 L 195.281334 136.246498 L 195.283852 136.228986 L 195.299184 136.014616 L 195.299500 136.005770 L 195.299500 111.404427 L 195.299184 111.395580 L 195.283851 111.181211 L 195.281333 111.163700 L 195.236595 110.958039 L 195.231611 110.941063 L 195.158053 110.743849 L 195.150703 110.727757 L 195.049836 110.543031 L 195.040271 110.528146 L 195.009724 110.487341 L 194.914133 110.359646 L 194.902547 110.346276 L 194.787797 110.231526 L 194.759543 110.210375 L 194.754879 110.209360 L 194.748386 110.204988 L 194.719591 110.201683 L 194.691270 110.195523 L 194.685301 110.197749 L 194.678971 110.197023 L 194.652957 110.209812 L 194.625806 110.219940 L 194.621988 110.225039 L 194.616270 110.227851 L 194.601303 110.252670 L 194.583934 110.275873 L 194.583479 110.282228 L 194.580190 110.287684 L 194.581017 110.316654 L 194.578950 110.345565 L 194.582003 110.351156 L 194.582184 110.357524 L 194.622171 110.480591 L 194.629703 110.528146 L 194.650500 110.659448 L 194.650500 110.840551 L 194.636765 110.927259 L 194.622171 111.019409 L 194.566211 111.191639 L 194.483996 111.352994 L 194.377553 111.499501 L 194.249501 111.627553 L 194.102994 111.733996 L 193.941639 111.816211 L 193.769409 111.872171 L 193.677259 111.886765 L 193.590551 111.900500 L 193.409454 111.900500 L 193.409449 111.900500 L 193.313429 111.885291 L 193.230591 111.872171 L 193.144476 111.844191 L 193.058363 111.816212 L 193.058360 111.816211 L 193.002484 111.787740 L 192.897006 111.733996 L 192.878287 111.720396 L 192.750505 111.627558 L 192.750500 111.627554 L 192.622445 111.499499 L 192.622441 111.499494 L 192.516006 111.352997 L 192.433788 111.191639 L 192.433787 111.191636 L 192.377829 111.019410 L 192.349500 110.840551 L 192.349500 110.659448 L 192.377829 110.480589 L 192.433787 110.308363 L 192.433788 110.308360 L 192.516003 110.147006 L 192.624709 109.997385 L 192.647128 109.942147 L 192.637184 109.872989 L 192.591429 109.820185 L 192.524390 109.800500 L 171.248604 109.800500 L 171.215799 109.804918 L 171.156356 109.841637 L 171.126201 109.904664 L 171.134908 109.973989 L 171.179712 110.027602 L 171.214038 110.050538 L 171.339461 110.175961 L 171.339464 110.175965 L 171.438009 110.323446 L 171.438016 110.323459 L 171.505893 110.487332 L 171.505896 110.487341 L 171.540499 110.661304 L 171.540500 110.661306 L 171.540500 110.661309 L 171.540500 110.838691 L 171.505894 111.012666 L 171.438013 111.176547 L 171.339464 111.324035 L 171.214035 111.449464 L 171.066547 111.548013 L 170.902666 111.615894 L 170.902661 111.615894 L 170.902658 111.615896 L 170.786682 111.638964 L 170.728694 111.650499 L 170.728693 111.650500 L 170.551309 111.650500 L 170.551307 111.650500 L 170.551304 111.650499 L 170.377341 111.615896 L 170.377336 111.615894 L 170.377334 111.615894 L 170.336363 111.598923 L 170.213459 111.548016 L 170.213446 111.548009 L 170.065965 111.449464 L 170.065961 111.449461 L 169.940538 111.324038 L 169.940535 111.324034 L 169.841990 111.176553 L 169.841983 111.176540 L 169.774106 111.012667 L 169.774103 111.012658 L 169.739500 110.838695 L 169.739500 110.661304 L 169.774103 110.487341 L 169.774106 110.487332 L 169.841983 110.323459 L 169.841990 110.323446 L 169.940535 110.175965 L 169.940538 110.175961 L 170.065961 110.050538 L 170.065965 110.050535 L 170.213446 109.951990 L 170.213455 109.951985 L 170.329012 109.904121 L 170.340387 109.898717 L 170.390063 109.849584 L 170.405290 109.781394 L 170.381233 109.715796 L 170.325530 109.673618 L 170.113003 109.593017 L 169.855860 109.458058 L 169.731111 109.371950 L 169.727710 109.369685 L 169.660671 109.350000 L 169.290000 109.350000 L 169.290000 109.023953 L 169.288536 109.004957 L 169.258814 108.941725 L 169.206916 108.883146 L 169.181049 108.845671 L 169.041942 108.644140 L 169.024598 108.611094 L 168.906986 108.387004 L 168.906985 108.387003 L 168.804004 108.115467 L 168.787384 108.048038 L 168.734504 107.833493 L 168.699500 107.545204 L 168.699500 107.400000 L 168.699500 107.342417 L 168.699500 100.014597 L 168.699184 100.005750 L 168.683853 99.791409 L 168.681335 99.773898 L 168.636597 99.568237 L 168.631613 99.551261 L 168.558056 99.354048 L 168.550706 99.337955 L 168.449837 99.153229 L 168.449835 99.153226 L 168.440272 99.138346 L 168.314134 98.969845 L 168.302548 98.956474 L 168.153724 98.807650 L 168.140354 98.796064 L 167.971849 98.669922 L 167.956969 98.660361 L 167.772243 98.559494 L 167.756151 98.552144 L 167.756148 98.552143 L 167.558929 98.478583 L 167.541970 98.473604 L 167.336294 98.428863 L 167.318793 98.426346 L 167.104418 98.411014 L 167.095572 98.410698 L 167.042417 98.410698 L 166.212370 98.410698 L 166.205992 98.410862 L 166.199297 98.411206 L 166.185619 98.411911 L 166.158764 98.416285 L 166.156626 98.417615 L 166.150994 98.418724 L 166.125787 98.436820 L 166.099454 98.453219 L 166.097652 98.457018 L 166.094236 98.459472 L 166.082814 98.488323 L 166.069529 98.516352 L 166.067147 98.531394 L 166.062078 98.555242 L 166.035409 98.680713 L 166.003078 98.801377 L 165.995895 98.828182 L 165.948719 98.973373 L 165.894010 99.115896 L 165.831917 99.255360 L 165.785865 99.345742 L 165.762608 99.391384 L 165.762601 99.391398 L 165.686290 99.523573 L 165.686278 99.523593 L 165.603132 99.651627 L 165.551229 99.723064 L 165.513406 99.775124 L 165.513389 99.775146 L 165.417344 99.893752 L 165.417325 99.893775 L 165.315174 100.007225 L 165.207225 100.115174 L 165.093775 100.217325 L 165.093757 100.217339 L 165.093752 100.217344 L 164.975146 100.313389 L 164.975124 100.313406 L 164.923064 100.351229 L 164.851627 100.403132 L 164.723593 100.486278 L 164.723586 100.486281 L 164.723580 100.486286 L 164.723573 100.486290 L 164.591398 100.562601 L 164.591389 100.562605 L 164.591383 100.562609 L 164.511372 100.603376 L 164.455396 100.631899 L 164.455390 100.631901 L 164.455360 100.631917 L 164.315896 100.694010 L 164.173373 100.748719 L 164.028182 100.795895 L 164.028179 100.795895 L 164.028179 100.795896 L 163.943038 100.818709 L 163.880721 100.835407 L 163.880718 100.835407 L 163.880713 100.835409 L 163.790883 100.854502 L 163.731394 100.867147 L 163.580611 100.891029 L 163.428785 100.906987 L 163.286494 100.914443 L 163.276332 100.914976 L 163.123669 100.914976 L 163.123668 100.914976 L 163.112779 100.914405 L 162.971215 100.906987 L 162.819389 100.891029 L 162.668606 100.867147 L 162.668573 100.867140 L 162.519286 100.835409 L 162.371820 100.795896 L 162.371818 100.795895 L 162.226627 100.748719 L 162.084104 100.694010 L 161.944640 100.631917 L 161.944616 100.631905 L 161.944603 100.631899 L 161.808615 100.562608 L 161.808601 100.562601 L 161.676426 100.486290 L 161.676419 100.486286 L 161.548380 100.403137 L 161.548377 100.403135 L 161.424875 100.313406 L 161.424853 100.313389 L 161.306247 100.217344 L 161.306231 100.217329 L 161.306225 100.217325 L 161.277792 100.191724 L 161.192797 100.115195 L 161.192768 100.115167 L 161.084832 100.007231 L 161.084804 100.007202 L 160.982678 99.893778 L 160.982655 99.893752 L 160.886610 99.775146 L 160.886593 99.775124 L 160.796864 99.651622 L 160.796862 99.651619 L 160.713713 99.523580 L 160.713709 99.523573 L 160.637398 99.391398 L 160.637391 99.391384 L 160.568100 99.255396 L 160.568087 99.255367 L 160.568083 99.255360 L 160.505990 99.115896 L 160.451287 98.973389 L 160.451283 98.973380 L 160.404104 98.828181 L 160.404103 98.828179 L 160.364590 98.680713 L 160.332854 98.531401 L 160.330470 98.516349 L 160.323292 98.490105 L 160.280313 98.435018 L 160.214376 98.411911 L 160.200701 98.411206 L 160.194007 98.410862 L 160.187629 98.410698 Z M 133.528470 112.798427 L 133.192002 112.865354 L 132.875056 112.996638 L 132.589812 113.187232 L 132.347232 113.429812 L 132.156638 113.715056 L 132.025354 114.032002 L 131.958427 114.368470 L 131.958427 114.711530 L 132.025354 115.047998 L 132.156638 115.364944 L 132.347232 115.650188 L 132.589812 115.892768 L 132.875056 116.083362 L 133.192002 116.214646 L 133.528470 116.281573 L 133.871530 116.281573 L 133.921353 116.271662 L 133.926057 116.272611 L 134.132543 116.232119 L 134.132544 116.232120 L 134.468443 116.166320 L 134.468445 116.166320 L 134.644781 116.147244 L 134.644805 116.147243 L 134.812681 116.148841 L 134.812693 116.148842 L 134.903375 116.167639 L 135.182187 116.446451 L 135.188336 116.523154 L 135.189199 116.525022 L 135.189199 117.793692 L 135.188115 117.795697 L 135.168590 117.984711 L 135.140356 118.107941 L 135.099434 118.236027 L 135.052146 118.348886 L 134.994106 118.456945 L 134.936619 118.541240 L 134.871022 118.616849 L 134.808463 118.672684 L 134.739696 118.718934 L 134.673564 118.750661 L 134.673561 118.750661 L 134.673559 118.750663 L 134.637965 118.761665 L 134.602367 118.772670 L 134.505092 118.783438 L 134.501635 118.784374 L 134.500850 118.785198 L 134.125027 118.785199 L 133.960340 118.800641 L 133.711107 118.887852 L 133.498652 119.044651 L 133.341853 119.257106 L 133.254642 119.506339 L 133.239199 119.671025 L 133.239200 122.399370 L 133.254642 122.564057 L 133.341853 122.813290 L 133.498652 123.025745 L 133.711107 123.182544 L 133.960340 123.269755 L 134.125026 123.285198 L 136.853371 123.285197 L 137.018058 123.269755 L 137.267291 123.182544 L 137.479746 123.025745 L 137.636545 122.813290 L 137.723756 122.564057 L 137.739199 122.399371 L 137.739198 119.671026 L 137.723756 119.506339 L 137.636545 119.257106 L 137.479746 119.044651 L 137.267291 118.887852 L 137.018058 118.800641 L 136.853372 118.785198 L 136.477397 118.785198 L 136.473781 118.783083 L 136.350812 118.766218 L 136.224888 118.710792 L 136.108439 118.617921 L 136.047126 118.541236 L 136.001296 118.483916 L 136.001293 118.483912 L 136.001291 118.483909 L 135.906947 118.306139 L 135.906945 118.306134 L 135.833363 118.090364 L 135.833362 118.090357 L 135.793085 117.865315 L 135.789739 117.796332 L 135.789199 117.795112 L 135.789199 116.329199 L 135.783435 116.270672 L 135.762888 116.221069 L 135.717636 115.999167 L 135.717262 115.997776 L 135.628953 115.735186 L 135.628620 115.734312 L 135.529207 115.501974 L 135.529194 115.501979 L 135.529181 115.501914 L 135.460731 115.344357 L 135.408769 115.198717 L 135.408768 115.198715 L 135.382788 115.061250 L 135.382786 115.061235 L 135.382553 115.008242 L 135.441573 114.711530 L 135.441573 114.368470 L 135.374646 114.032002 L 135.243362 113.715056 L 135.052768 113.429812 L 134.810188 113.187232 L 134.524944 112.996638 L 134.207998 112.865354 L 133.871530 112.798427 Z M 162.952685 96.528121 L 162.712116 96.589041 L 162.484855 96.688727 L 162.277102 96.824459 L 162.094523 96.992535 L 161.942098 97.188370 L 161.823986 97.406622 L 161.743408 97.641339 L 161.702562 97.886117 L 161.702562 98.134279 L 161.743408 98.379057 L 161.823986 98.613774 L 161.942098 98.832026 L 162.094523 99.027861 L 162.277102 99.195937 L 162.484855 99.331669 L 162.712116 99.431355 L 162.952685 99.492275 L 163.200000 99.512769 L 163.447315 99.492275 L 163.687884 99.431355 L 163.915145 99.331669 L 164.122898 99.195937 L 164.305477 99.027861 L 164.457902 98.832026 L 164.576014 98.613774 L 164.656592 98.379057 L 164.697438 98.134279 L 164.700000 98.010198 L 164.697438 97.886117 L 164.656592 97.641339 L 164.576014 97.406622 L 164.457902 97.188370 L 164.305477 96.992535 L 164.122898 96.824459 L 163.915145 96.688727 L 163.687884 96.589041 L 163.447315 96.528121 L 163.200000 96.507628 Z" fill="#000000" fill-rule="evenodd" /><circle cx="164.700000" cy="107.540000" r="0.900000" fill="#ff7f56" /><circle cx="164.700000" cy="114.540000" r="0.900000" fill="#ff7f56" /><circle cx="133.700000" cy="114.540000" r="0.900000" fill="#ff7f56" /><circle cx="133.700000" cy="107.540000" r="0.900000" fill="#ff7f56" /><circle cx="170.640000" cy="110.750000" r="0.650000" fill="#ff7f56" /><circle cx="170.640000" cy="113.290000" r="0.650000" fill="#ff7f56" /><circle cx="170.640000" cy="115.830000" r="0.650000" fill="#ff7f56" /><circle cx="170.640000" cy="118.370000" r="0.650000" fill="#ff7f56" /><circle cx="170.640000" cy="120.910000" r="0.650000" fill="#ff7f56" /><circle cx="170.640000" cy="123.450000" r="0.650000" fill="#ff7f56" /><circle cx="170.640000" cy="125.990000" r="0.650000" fill="#ff7f56" /><circle cx="193.500000" cy="110.750000" r="0.650000" fill="#ff7f56" /><circle cx="193.500000" cy="113.290000" r="0.650000" fill="#ff7f56" /><circle cx="193.500000" cy="115.830000" r="0.650000" fill="#ff7f56" /><circle cx="193.500000" cy="118.370000" r="0.650000" fill="#ff7f56" /><circle cx="193.500000" cy="120.910000" r="0.650000" fill="#ff7f56" /><circle cx="193.500000" cy="123.450000" r="0.650000" fill="#ff7f56" /><circle cx="193.500000" cy="125.990000" r="0.650000" fill="#ff7f56" /><circle cx="193.500000" cy="128.530000" r="0.650000" fill="#ff7f56" /><circle cx="170.640000" cy="128.530000" r="0.650000" fill="#ff7f56" /><circle cx="154.219199" cy="132.660198" r="0.800000" fill="#ff7f56" /><circle cx="159.299199" cy="132.660198" r="0.800000" fill="#ff7f56" /><circle cx="164.379199" cy="132.660198" r="0.800000" fill="#ff7f56" /><circle cx="182.550000" cy="121.850000" r="0.400000" fill="#ff7f56" /><circle cx="182.550000" cy="127.600000" r="0.400000" fill="#ff7f56" /><path d="M 135.441573 114.368470 L 135.374646 114.032002 L 135.243362 113.715056 L 135.052768 113.429812 L 134.810188 113.187232 L 134.524944 112.996638 L 134.207998 112.865354 L 133.871530 112.798427 L 133.528470 112.798427 L 133.192002 112.865354 L 132.875056 112.996638 L 132.589812 113.187232 L 132.347232 113.429812 L 132.156638 113.715056 L 132.025354 114.032002 L 131.958427 114.368470 L 131.958427 114.711530 L 132.025354 115.047998 L 132.156638 115.364944 L 132.347232 115.650188 L 132.589812 115.892768 L 132.875056 116.083362 L 133.192002 116.214646 L 133.528470 116.281573 L 133.871530 116.281573 L 134.207998 116.214646 L 134.524944 116.083362 L 134.810188 115.892768 L 135.052768 115.650188 L 135.243362 115.364944 L 135.374646 115.047998 L 135.441573 114.711530 L 135.441573 114.368470 Z M 133.239199 119.671025 L 133.254642 119.506339 L 133.341853 119.257106 L 133.498652 119.044651 L 133.711107 118.887852 L 133.960340 118.800641 L 134.125027 118.785199 L 136.853372 118.785198 L 137.018058 118.800641 L 137.267291 118.887852 L 137.479746 119.044651 L 137.636545 119.257106 L 137.723756 119.506339 L 137.739198 119.671026 L 137.739199 122.399371 L 137.723756 122.564057 L 137.636545 122.813290 L 137.479746 123.025745 L 137.267291 123.182544 L 137.018058 123.269755 L 136.853371 123.285197 L 134.125026 123.285198 L 133.960340 123.269755 L 133.711107 123.182544 L 133.498652 123.025745 L 133.341853 122.813290 L 133.254642 122.564057 L 133.239200 122.399370 Z M 138.804199 119.671025 L 138.819642 119.506339 L 138.906853 119.257106 L 139.063652 119.044651 L 139.276107 118.887852 L 139.525340 118.800641 L 139.690027 118.785199 L 142.418372 118.785198 L 142.583058 118.800641 L 142.832291 118.887852 L 143.044746 119.044651 L 143.201545 119.257106 L 143.288756 119.506339 L 143.304198 119.671026 L 143.304199 122.399371 L 143.288756 122.564057 L 143.201545 122.813290 L 143.044746 123.025745 L 142.832291 123.182544 L 142.583058 123.269755 L 142.418371 123.285197 L 139.690026 123.285198 L 139.525340 123.269755 L 139.276107 123.182544 L 139.063652 123.025745 L 138.906853 122.813290 L 138.819642 122.564057 L 138.804200 122.399370 Z M 183.350000 121.850000 L 183.334628 122.006072 L 183.289103 122.156146 L 183.215175 122.294456 L 183.115685 122.415685 L 182.994456 122.515175 L 182.856146 122.589103 L 182.706072 122.634628 L 182.550000 122.650000 L 182.393928 122.634628 L 182.243854 122.589103 L 182.105544 122.515175 L 181.984315 122.415685 L 181.884825 122.294456 L 181.810897 122.156146 L 181.765372 122.006072 L 181.750000 121.850000 L 181.765372 121.693928 L 181.810897 121.543854 L 181.884825 121.405544 L 181.984315 121.284315 L 182.105544 121.184825 L 182.243854 121.110897 L 182.393928 121.065372 L 182.550000 121.050000 L 182.706072 121.065372 L 182.856146 121.110897 L 182.994456 121.184825 L 183.115685 121.284315 L 183.215175 121.405544 L 183.289103 121.543854 L 183.334628 121.693928 Z M 183.350000 127.600000 L 183.334628 127.756072 L 183.289103 127.906146 L 183.215175 128.044456 L 183.115685 128.165685 L 182.994456 128.265175 L 182.856146 128.339103 L 182.706072 128.384628 L 182.550000 128.400000 L 182.393928 128.384628 L 182.243854 128.339103 L 182.105544 128.265175 L 181.984315 128.165685 L 181.884825 128.044456 L 181.810897 127.906146 L 181.765372 127.756072 L 181.750000 127.600000 L 181.765372 127.443928 L 181.810897 127.293854 L 181.884825 127.155544 L 181.984315 127.034315 L 182.105544 126.934825 L 182.243854 126.860897 L 182.393928 126.815372 L 182.550000 126.800000 L 182.706072 126.815372 L 182.856146 126.860897 L 182.994456 126.934825 L 183.115685 127.034315 L 183.215175 127.155544 L 183.289103 127.293854 L 183.334628 127.443928 Z" fill="#ffff00" fill-rule="evenodd" /><circle cx="127.500000" cy="141.250000" r="1.975000" stroke="#00befe" stroke-width="0.100" fill="none" /><circle cx="162.500000" cy="141.250000" r="1.975000" stroke="#00befe" stroke-width="0.100" fill="none" /><circle cx="127.500000" cy="106.250000" r="1.975000" stroke="#00befe" stroke-width="0.100" fill="none" /><circle cx="197.500000" cy="141.250000" r="1.975000" stroke="#00befe" stroke-width="0.100" fill="none" /><rect x="124.750000" y="94.250000" width="76.000000" height="50.000000" stroke="#00befe" stroke-width="0.100" fill="none" /><circle cx="197.500000" cy="106.250000" r="1.975000" stroke="#00befe" stroke-width="0.100" fill="none" /></svg>